<svg data-v-423bf9ae="" xmlns="http://www.w3.org/2000/svg" viewBox="0 0 406.61909524807317 163" class="iconAbove"><!----><!----><!----><g data-v-423bf9ae="" id="5ab3bb29-5c3b-40fb-a0a8-c429a0d707bf" fill="white" transform="matrix(5.3523639425355505,0,0,5.3523639425355505,-3.7466594852475623,97.38001930765117)"><path d="M0.70 12.02L0.70 12.02L0.70 1.27L0.70 1.27Q0.70 1.05 0.94 1.05L0.94 1.05L2.38 1.05L2.38 1.05Q2.60 1.05 2.60 1.27L2.60 1.27L2.60 5.73L4.40 5.73L4.40 1.27L4.40 1.27Q4.40 1.05 4.62 1.05L4.62 1.05L6.06 1.05L6.06 1.05Q6.30 1.05 6.30 1.27L6.30 1.27L6.30 12.02L6.30 12.02Q6.30 12.25 6.06 12.25L6.06 12.25L4.62 12.25L4.62 12.25Q4.52 12.25 4.46 12.19L4.46 12.19L4.46 12.19Q4.40 12.13 4.40 12.02L4.40 12.02L4.40 7.57L2.60 7.57L2.60 12.02L2.60 12.02Q2.60 12.13 2.54 12.19L2.54 12.19L2.54 12.19Q2.48 12.25 2.38 12.25L2.38 12.25L0.94 12.25L0.94 12.25Q0.70 12.25 0.70 12.02ZM7.43 12.01L7.43 12.01L9.75 2.65L9.75 2.65Q9.80 2.45 9.99 2.45L9.99 2.45L11.94 2.45L11.94 2.45Q12.14 2.45 12.18 2.65L12.18 2.65L14.51 12.01L14.51 12.01Q14.52 12.06 14.52 12.09L14.52 12.09L14.52 12.09Q14.52 12.25 14.31 12.25L14.31 12.25L12.95 12.25L12.95 12.25Q12.77 12.25 12.73 12.05L12.73 12.05L12.28 10.29L9.65 10.29L9.21 12.05L9.21 12.05Q9.17 12.25 8.99 12.25L8.99 12.25L7.62 12.25L7.62 12.25Q7.42 12.25 7.42 12.10L7.42 12.10L7.42 12.10Q7.42 12.06 7.43 12.01ZM10.96 4.86L10.08 8.67L11.85 8.67L10.96 4.86ZM15.63 12.02L15.63 12.02L15.63 2.67L15.63 2.67Q15.63 2.57 15.70 2.51L15.70 2.51L15.70 2.51Q15.76 2.45 15.86 2.45L15.86 2.45L19.22 2.45L19.22 2.45Q20.21 2.45 20.73 2.96L20.73 2.96L20.73 2.96Q21.24 3.47 21.24 4.46L21.24 4.46L21.24 7.21L21.24 7.21Q21.24 8.19 20.73 8.71L20.73 8.71L20.73 8.71Q20.21 9.22 19.22 9.23L19.22 9.23L17.46 9.24L17.46 12.04L17.46 12.04Q17.46 12.26 17.23 12.26L17.23 12.26L15.86 12.25L15.86 12.25Q15.76 12.25 15.70 12.19L15.70 12.19L15.70 12.19Q15.63 12.13 15.63 12.02ZM17.46 4.27L17.46 7.43L18.85 7.42L18.85 7.42Q19.41 7.42 19.41 6.86L19.41 6.86L19.41 4.82L19.41 4.82Q19.41 4.26 18.85 4.26L18.85 4.26L17.46 4.27ZM22.63 12.02L22.63 12.02L22.63 2.67L22.63 2.67Q22.63 2.57 22.70 2.51L22.70 2.51L22.70 2.51Q22.76 2.45 22.86 2.45L22.86 2.45L26.22 2.45L26.22 2.45Q27.21 2.45 27.73 2.96L27.73 2.96L27.73 2.96Q28.24 3.47 28.24 4.46L28.24 4.46L28.24 7.21L28.24 7.21Q28.24 8.19 27.73 8.71L27.73 8.71L27.73 8.71Q27.21 9.22 26.22 9.23L26.22 9.23L24.46 9.24L24.46 12.04L24.46 12.04Q24.46 12.26 24.23 12.26L24.23 12.26L22.86 12.25L22.86 12.25Q22.76 12.25 22.70 12.19L22.70 12.19L22.70 12.19Q22.63 12.13 22.63 12.02ZM24.46 4.27L24.46 7.43L25.85 7.42L25.85 7.42Q26.41 7.42 26.41 6.86L26.41 6.86L26.41 4.82L26.41 4.82Q26.41 4.26 25.85 4.26L25.85 4.26L24.46 4.27ZM31.66 8.58L29.11 2.78L29.11 2.78Q29.07 2.71 29.07 2.65L29.07 2.65L29.07 2.65Q29.07 2.59 29.11 2.54L29.11 2.54L29.11 2.54Q29.17 2.45 29.33 2.45L29.33 2.45L30.73 2.45L30.73 2.45Q30.96 2.45 31.05 2.67L31.05 2.67L32.62 6.28L34.19 2.67L34.19 2.67Q34.28 2.45 34.51 2.45L34.51 2.45L35.91 2.45L35.91 2.45Q36.07 2.45 36.13 2.54L36.13 2.54L36.13 2.54Q36.16 2.59 36.16 2.65L36.16 2.65L36.16 2.65Q36.16 2.71 36.13 2.78L36.13 2.78L33.57 8.58L33.57 11.97L33.57 11.97Q33.57 12.25 33.29 12.25L33.29 12.25L31.94 12.25L31.94 12.25Q31.66 12.25 31.66 11.97L31.66 11.97L31.66 8.58ZM40.22 2.67L40.22 2.67L40.22 1.27L40.22 1.27Q40.22 1.05 40.44 1.05L40.44 1.05L45.60 1.05L45.60 1.05Q45.82 1.05 45.82 1.27L45.82 1.27L45.82 2.67L45.82 2.67Q45.82 2.90 45.60 2.90L45.60 2.90L43.97 2.90L43.97 12.02L43.97 12.02Q43.97 12.25 43.75 12.25L43.75 12.25L42.29 12.25L42.29 12.25Q42.07 12.25 42.07 12.02L42.07 12.02L42.07 2.90L40.44 2.90L40.44 2.90Q40.34 2.90 40.28 2.84L40.28 2.84L40.28 2.84Q40.22 2.78 40.22 2.67ZM48.23 11.98L46.94 2.74L46.94 2.74Q46.93 2.71 46.93 2.67L46.93 2.67L46.93 2.67Q46.93 2.45 47.20 2.45L47.20 2.45L48.52 2.45L48.52 2.45Q48.77 2.45 48.82 2.71L48.82 2.71L49.50 8.57L49.57 8.57L50.94 2.69L50.94 2.69Q51.00 2.45 51.25 2.45L51.25 2.45L52.10 2.45L52.10 2.45Q52.35 2.45 52.41 2.69L52.41 2.69L53.79 8.57L53.85 8.57L54.57 2.71L54.57 2.71Q54.61 2.45 54.87 2.45L54.87 2.45L56.18 2.45L56.18 2.45Q56.45 2.45 56.45 2.67L56.45 2.67L56.45 2.67Q56.45 2.70 56.44 2.74L56.44 2.74L55.10 12.00L55.10 12.00Q55.06 12.25 54.79 12.25L54.79 12.25L53.28 12.25L53.28 12.25Q53.03 12.25 52.97 12.00L52.97 12.00L51.69 6.25L50.38 12.00L50.38 12.00Q50.32 12.25 50.07 12.25L50.07 12.25L48.54 12.25L48.54 12.25Q48.27 12.25 48.23 11.98L48.23 11.98ZM57.67 12.02L57.67 12.02L57.67 2.67L57.67 2.67Q57.67 2.57 57.73 2.51L57.73 2.51L57.73 2.51Q57.78 2.45 57.88 2.45L57.88 2.45L63.03 2.45L63.03 2.45Q63.26 2.45 63.26 2.67L63.26 2.67L63.26 4.07L63.26 4.07Q63.26 4.31 63.03 4.31L63.03 4.31L59.58 4.31L59.58 6.47L62.21 6.47L62.21 6.47Q62.43 6.47 62.43 6.71L62.43 6.71L62.43 8.09L62.43 8.09Q62.43 8.33 62.21 8.33L62.21 8.33L59.58 8.33L59.58 10.40L63.03 10.40L63.03 10.40Q63.16 10.40 63.21 10.45L63.21 10.45L63.21 10.45Q63.26 10.50 63.26 10.62L63.26 10.62L63.26 12.02L63.26 12.02Q63.26 12.25 63.03 12.25L63.03 12.25L57.88 12.25L57.88 12.25Q57.78 12.25 57.73 12.19L57.73 12.19L57.73 12.19Q57.67 12.13 57.67 12.02ZM64.65 12.02L64.65 12.02L64.65 2.67L64.65 2.67Q64.65 2.57 64.71 2.51L64.71 2.51L64.71 2.51Q64.76 2.45 64.86 2.45L64.86 2.45L70.01 2.45L70.01 2.45Q70.24 2.45 70.24 2.67L70.24 2.67L70.24 4.07L70.24 4.07Q70.24 4.31 70.01 4.31L70.01 4.31L66.55 4.31L66.55 6.47L69.19 6.47L69.19 6.47Q69.41 6.47 69.41 6.71L69.41 6.71L69.41 8.09L69.41 8.09Q69.41 8.33 69.19 8.33L69.19 8.33L66.55 8.33L66.55 10.40L70.01 10.40L70.01 10.40Q70.14 10.40 70.19 10.45L70.19 10.45L70.19 10.45Q70.24 10.50 70.24 10.62L70.24 10.62L70.24 12.02L70.24 12.02Q70.24 12.25 70.01 12.25L70.01 12.25L64.86 12.25L64.86 12.25Q64.76 12.25 64.71 12.19L64.71 12.19L64.71 12.19Q64.65 12.13 64.65 12.02ZM71.07 2.67L71.07 4.07L71.07 4.07Q71.07 4.18 71.13 4.24L71.13 4.24L71.13 4.24Q71.19 4.30 71.29 4.30L71.29 4.30L72.92 4.30L72.92 12.02L72.92 12.02Q72.92 12.25 73.14 12.25L73.14 12.25L74.60 12.25L74.60 12.25Q74.82 12.25 74.82 12.02L74.82 12.02L74.82 4.30L76.45 4.30L76.45 4.30Q76.67 4.30 76.67 4.07L76.67 4.07L76.67 2.67L76.67 2.67Q76.67 2.45 76.45 2.45L76.45 2.45L71.29 2.45L71.29 2.45Q71.19 2.45 71.13 2.51L71.13 2.51L71.13 2.51Q71.07 2.57 71.07 2.67L71.07 2.67Z"></path></g><!----><g data-v-423bf9ae="" id="7fdbcc9b-84ea-46af-8998-a77ca9ca7dd8" transform="matrix(1.1166114851824036,0,0,1.1166114851824036,148.93100885240165,-15.733079613422923)" stroke="none" fill="white"><path d="M61.039 56.566l-5.984-1.985c-.785-4.462-2.916-7.948-6.192-10.117-1.766-1.167-3.877-1.786-6.105-1.786-5.235 0-9.988 3.302-11.557 8.029a11.978 11.978 0 0 0-.537 5.193L17.336 43.51a1.296 1.296 0 0 0-1.715-.043c-.197.167-4.86 4.159-5.277 10.906-.301 4.884 1.683 9.863 5.903 14.819-3.136 1.612-7.724 3.853-9.231 4.586a1.294 1.294 0 0 0-.482 1.926 26.712 26.712 0 0 0 13.274 9.701c.22.072.441.138.663.205v7.264H3.553a1.294 1.294 0 1 0 0 2.589h54.375a1.296 1.296 0 0 0 0-2.589H38.421v-8.075A26.86 26.86 0 0 0 53.794 68.36a32.37 32.37 0 0 0 1.412-6.397l6.006-3.011a1.296 1.296 0 0 0-.173-2.386zm-25.206 36.31H23.06v-6.61c1.721.343 3.467.518 5.222.518 2.606 0 5.142-.376 7.551-1.08v7.172zM53.41 59.97a1.29 1.29 0 0 0-.708 1.039 29.604 29.604 0 0 1-1.366 6.538 24.26 24.26 0 0 1-23.055 16.647c-2.595 0-5.171-.419-7.658-1.244a24.112 24.112 0 0 1-11.044-7.541c2.536-1.24 6.94-3.41 9.346-4.694a1.293 1.293 0 0 0 .34-2.024c-4.474-4.816-6.608-9.567-6.34-14.117.238-4.052 2.371-6.979 3.564-8.314l16.429 15.272a1.293 1.293 0 0 0 1.944-1.688 9.314 9.314 0 0 1-1.206-8.32c1.223-3.684 4.966-6.256 9.1-6.256 1.719 0 3.336.468 4.676 1.355 2.873 1.902 4.618 4.97 5.184 9.122.073.539.473.96.982 1.08l3.657 1.215-3.845 1.93z"></path><path d="M46.138 63.972a1.299 1.299 0 0 0-1.637.819 19.165 19.165 0 0 1-9.665 11.172 19.166 19.166 0 0 1-14.733 1.065 1.3 1.3 0 0 0-1.637.821c-.225.679.142 1.41.82 1.637a21.952 21.952 0 0 0 6.918 1.126c3.361 0 6.7-.784 9.792-2.333a21.75 21.75 0 0 0 10.961-12.672 1.29 1.29 0 0 0-.819-1.635z"></path><circle cx="43.979" cy="54.083" r="2.475"></circle><path d="M27.911 67.273a1.296 1.296 0 0 0 .888-2.238l-7.694-7.246a1.294 1.294 0 1 0-1.776 1.882l7.694 7.249c.251.235.57.353.888.353zM78.826 14.862l-.127.001a17.891 17.891 0 0 0-12.701 5.364 17.884 17.884 0 0 0-5.189 12.775 17.969 17.969 0 0 0 10.286 16.153c-.576 3.653-2.176 5.832-4.763 6.482a1.293 1.293 0 0 0 .072 2.526c.038.007.917.172 2.22.172 2.653 0 8.991-.753 12.03-7.534 9.205-.926 16.25-8.7 16.186-18.047-.069-9.865-8.15-17.892-18.014-17.892zm.866 33.418c-.507.03-.952.353-1.136.827-1.63 4.22-4.711 5.818-7.326 6.372 1.382-1.668 2.25-4.018 2.56-6.98a1.292 1.292 0 0 0-.798-1.334 15.398 15.398 0 0 1-9.596-14.179 15.335 15.335 0 0 1 4.443-10.939 15.325 15.325 0 0 1 10.878-4.594l.108-.001c8.447 0 15.367 6.874 15.426 15.322.057 8.238-6.339 15.05-14.559 15.506z"></path></g><!----></svg>